<svg width="143" height="72" viewBox="0 0 143 72" fill="none" xmlns="http://www.w3.org/2000/svg">
<g clip-path="url(#clip0_228_182)">
<path d="M0 53.6032H4.22006L4.34276 55.6764H4.43041C4.83055 54.9733 5.37703 54.3607 6.03429 53.8785C6.70813 53.3698 7.53754 53.0999 8.38753 53.1129C8.63832 53.1146 8.88815 53.1435 9.13251 53.1989C9.3145 53.2351 9.49327 53.2854 9.66714 53.3494V57.2206C9.44777 57.1713 9.22521 57.1368 9.00104 57.1174C8.7644 57.1174 8.51024 57.083 8.23416 57.083C7.40693 57.0673 6.59777 57.3215 5.9335 57.8056C5.29019 58.2698 4.79224 58.9016 4.49614 59.6294V71.4924H0V53.6032Z" fill="#EAE664"/>
<path d="M11.2535 62.279C11.2535 59.5261 12.0686 57.3081 13.6988 55.6248C15.329 53.9416 17.4412 53.0985 20.0355 53.0956C22.6297 53.0956 24.6558 53.8842 26.1136 55.4614C27.5714 57.0385 28.3018 59.2093 28.3047 61.9736V63.5995H14.2466V60.6832H23.8217V60.2531C23.8629 59.2461 23.5208 58.2602 22.862 57.4873C22.5155 57.1017 22.084 56.7986 21.6003 56.6011C21.1166 56.4036 20.5935 56.3169 20.0705 56.3474C19.4384 56.3135 18.8081 56.4411 18.2412 56.7178C17.6744 56.9945 17.1904 57.4108 16.8365 57.926C16.0602 59.169 15.6816 60.6119 15.7497 62.0682V62.9672C15.6786 64.4337 16.0921 65.8836 16.9285 67.1008C17.7085 68.156 18.8771 68.6822 20.4343 68.6794C21.3841 68.704 22.3202 68.4526 23.1249 67.9567C23.8351 67.5059 24.4485 66.9228 24.9304 66.2405L28.0242 68.3439C27.3389 69.4436 26.3578 70.3366 25.1889 70.9247C23.7417 71.6735 22.1223 72.0438 20.4868 72C17.5829 72 15.3173 71.1541 13.6901 69.4622C12.0628 67.7704 11.2506 65.5566 11.2535 62.821V62.279Z" fill="#EAE664"/>
<path d="M31.7928 53.6032H36.0129L36.1312 55.7281H36.2364C36.7966 54.948 37.5509 54.3216 38.4275 53.9086C39.3518 53.4793 40.3629 53.2602 41.3855 53.2677C42.5216 53.2385 43.6462 53.4978 44.6502 54.0204C45.5821 54.532 46.304 55.3454 46.6923 56.3216H46.78C47.3829 55.3389 48.2543 54.5417 49.2954 54.0204C50.322 53.5162 51.4559 53.2582 52.6039 53.2677C54.462 53.2677 55.9402 53.8125 57.0387 54.9022C58.1372 55.9919 58.6879 57.8171 58.6908 60.3778V71.4924H54.2166V60.1541C54.2166 58.967 53.9668 58.0981 53.4585 57.5733C53.169 57.2864 52.8199 57.0641 52.435 56.9216C52.05 56.779 51.6383 56.7197 51.2279 56.7475C50.4405 56.726 49.6686 56.9654 49.0368 57.4271C48.3796 57.9183 47.862 58.567 47.5337 59.3111V71.514H43.02V60.1885C43.02 58.9799 42.7615 58.0981 42.2488 57.5518C41.9576 57.2647 41.607 57.0423 41.2206 56.8998C40.8343 56.7573 40.4212 56.698 40.0095 56.726C39.2159 56.7088 38.4385 56.9476 37.7965 57.4056C37.143 57.8963 36.631 58.5456 36.3109 59.2896V71.4924H31.7928V53.6032Z" fill="#161616"/>
<path d="M62.2404 62.279C62.2404 59.5261 63.0554 57.3081 64.6856 55.6248C66.3158 53.9416 68.428 53.0985 71.0223 53.0956C73.6166 53.0956 75.6426 53.8842 77.1004 55.4614C78.5582 57.0385 79.2886 59.2093 79.2915 61.9736V63.5995H65.2334V60.6832H74.8085V60.2531C74.8498 59.2461 74.5076 58.2602 73.8488 57.4873C73.5023 57.1017 73.0708 56.7986 72.5871 56.6011C72.1034 56.4036 71.5803 56.3169 71.0574 56.3474C70.4252 56.3135 69.7949 56.4411 69.2281 56.7178C68.6612 56.9945 68.1772 57.4108 67.8233 57.926C67.047 59.169 66.6684 60.6119 66.7365 62.0682V62.9672C66.671 64.4178 67.0795 65.851 67.9022 67.0578C68.6822 68.113 69.8508 68.6392 71.4079 68.6364C72.3578 68.661 73.2939 68.4096 74.0986 67.9137C74.8123 67.4735 75.4315 66.9007 75.9216 66.2276L79.0154 68.331C78.33 69.4307 77.349 70.3237 76.1801 70.9118C74.7328 71.6606 73.1135 72.0309 71.478 71.9871C68.5741 71.9871 66.3085 71.1412 64.6812 69.4493C63.054 67.7575 62.2418 65.5437 62.2447 62.8081L62.2404 62.279Z" fill="#161616"/>
<path d="M81.7588 62.279C81.7588 59.6294 82.4804 57.4644 83.9236 55.784C84.6059 54.9668 85.4707 54.3147 86.451 53.8784C87.4313 53.442 88.5008 53.2331 89.5766 53.2677C90.6342 53.2389 91.6841 53.4509 92.6442 53.8871C93.4415 54.2518 94.1275 54.8154 94.6337 55.5216V45.478H99.1298V71.4924H94.9098L94.7871 69.3418H94.7038C94.2288 70.1076 93.5419 70.7251 92.7231 71.1225C91.7601 71.6126 90.6874 71.858 89.6029 71.8365C87.1781 71.8365 85.2675 70.9964 83.871 69.316C82.4745 67.6356 81.7734 65.472 81.7676 62.8253L81.7588 62.279ZM87.4162 66.9029C88.1174 67.9266 89.191 68.4385 90.6284 68.4385C91.5277 68.4652 92.4087 68.1856 93.1218 67.6471C93.7669 67.1632 94.2827 66.5329 94.6249 65.8104V59.2896C94.3015 58.5607 93.7949 57.9243 93.1525 57.44C92.4276 56.9029 91.536 56.6279 90.6284 56.6614C90.0046 56.623 89.3814 56.7444 88.8199 57.0136C88.2583 57.2828 87.7776 57.6906 87.425 58.197C86.6742 59.3642 86.3028 60.7278 86.3601 62.1069V62.9887C86.3015 64.3682 86.6697 65.7327 87.4162 66.9029Z" fill="#161616"/>
<path d="M104.169 46.7641C104.731 46.316 105.433 46.0713 106.157 46.0713C106.881 46.0713 107.582 46.316 108.144 46.7641C108.592 47.2349 108.842 47.8553 108.842 48.4997C108.842 49.1441 108.592 49.7644 108.144 50.2353C107.878 50.4812 107.563 50.6708 107.22 50.7922C106.876 50.9136 106.51 50.9641 106.146 50.9407C105.786 50.9617 105.426 50.91 105.087 50.7886C104.749 50.6673 104.439 50.4789 104.178 50.2353C103.733 49.763 103.485 49.1432 103.485 48.4997C103.485 47.8562 103.733 47.2363 104.178 46.7641H104.169ZM103.893 53.6032H108.403V71.4924H103.893V53.6032Z" fill="#161616"/>
<path d="M114.551 61.8101C116.087 60.8094 118.026 60.309 120.366 60.309H124.086V59.2207C124.116 58.4455 123.867 57.6847 123.385 57.0701C122.918 56.4966 122.097 56.2098 120.923 56.2098C119.748 56.2098 118.915 56.4421 118.425 56.9066C118.192 57.1146 118.005 57.3683 117.879 57.6514C117.752 57.9344 117.687 58.2405 117.688 58.5497V58.7562H113.245V58.5497C113.245 57.0156 113.965 55.7252 115.405 54.6785C116.846 53.6319 118.745 53.1057 121.102 53.0999C123.457 53.0999 125.293 53.6061 126.611 54.6183C127.928 55.6306 128.588 57.1719 128.591 59.2422V67.4578C128.587 68.1546 128.65 68.8502 128.78 69.5353C128.884 70.1167 129.058 70.684 129.297 71.2258V71.4967H124.915C124.742 71.1613 124.608 70.8078 124.516 70.4429C124.403 70.0201 124.328 69.5883 124.292 69.1525C123.804 69.9447 123.097 70.5857 122.255 71.0021C121.108 71.5867 119.826 71.8683 118.534 71.8193C116.925 71.8681 115.348 71.3664 114.073 70.3999C112.864 69.4593 112.259 68.0657 112.259 66.219C112.215 65.3516 112.404 64.4881 112.806 63.7145C113.208 62.9409 113.81 62.2843 114.551 61.8101ZM117.518 67.9352C118.02 68.4514 118.821 68.7095 119.919 68.7095C121.008 68.7281 122.062 68.3319 122.859 67.604C123.237 67.294 123.543 66.9075 123.754 66.471C123.966 66.0345 124.079 65.5583 124.086 65.0749V63.0919H120.958C119.552 63.0919 118.501 63.3357 117.802 63.8232C117.465 64.0495 117.191 64.3568 117.008 64.7158C116.824 65.0748 116.738 65.4737 116.755 65.8749C116.736 66.2509 116.794 66.6268 116.924 66.9806C117.055 67.3344 117.257 67.659 117.518 67.9352Z" fill="#161616"/>
<path d="M133.32 53.6032H137.553L137.676 55.6764H137.763C138.164 54.9722 138.712 54.3594 139.372 53.8785C140.044 53.3698 140.872 53.0999 141.72 53.1129C141.971 53.1146 142.221 53.1435 142.465 53.1989C142.647 53.2351 142.826 53.2854 143 53.3494V57.2206C142.781 57.1713 142.558 57.1368 142.334 57.1174C142.097 57.1174 141.843 57.083 141.567 57.083C140.74 57.0673 139.931 57.3214 139.266 57.8056C138.623 58.2698 138.125 58.9016 137.829 59.6294V71.4924H133.32V53.6032Z" fill="#161616"/>
<path d="M65.5402 33.1805C68.6429 33.1805 71.1582 30.7116 71.1582 27.6662C71.1582 24.6207 68.6429 22.1519 65.5402 22.1519C62.4375 22.1519 59.9222 24.6207 59.9222 27.6662C59.9222 30.7116 62.4375 33.1805 65.5402 33.1805Z" stroke="#161616" stroke-miterlimit="10"/>
<path d="M52.3016 37.6625C54.5597 37.6625 56.3902 35.8657 56.3902 33.6493C56.3902 31.4329 54.5597 29.6362 52.3016 29.6362C50.0435 29.6362 48.213 31.4329 48.213 33.6493C48.213 35.8657 50.0435 37.6625 52.3016 37.6625Z" fill="#EAE664"/>
<path d="M104.515 38.1958C107.618 38.1958 110.133 35.727 110.133 32.6815C110.133 29.636 107.618 27.1672 104.515 27.1672C101.413 27.1672 98.8975 29.636 98.8975 32.6815C98.8975 35.727 101.413 38.1958 104.515 38.1958Z" stroke="#161616" stroke-miterlimit="10"/>
<path d="M77.2758 43.3402C80.1728 43.3402 82.5213 41.0351 82.5213 38.1915C82.5213 35.348 80.1728 33.0428 77.2758 33.0428C74.3788 33.0428 72.0303 35.348 72.0303 38.1915C72.0303 41.0351 74.3788 43.3402 77.2758 43.3402Z" fill="#161616"/>
<path d="M90.1156 21.2916C93.0126 21.2916 95.3611 18.9864 95.3611 16.1429C95.3611 13.2994 93.0126 10.9942 90.1156 10.9942C87.2186 10.9942 84.8701 13.2994 84.8701 16.1429C84.8701 18.9864 87.2186 21.2916 90.1156 21.2916Z" fill="#161616"/>
<path d="M90.1156 32.6815C92.1704 32.6815 93.8361 31.0465 93.8361 29.0297C93.8361 27.0128 92.1704 25.3779 90.1156 25.3779C88.0609 25.3779 86.3951 27.0128 86.3951 29.0297C86.3951 31.0465 88.0609 32.6815 90.1156 32.6815Z" fill="#161616"/>
<path d="M119.748 40.3465C121.803 40.3465 123.469 38.7115 123.469 36.6947C123.469 34.6778 121.803 33.0428 119.748 33.0428C117.693 33.0428 116.028 34.6778 116.028 36.6947C116.028 38.7115 117.693 40.3465 119.748 40.3465Z" fill="#161616"/>
<path d="M112.311 19.7947C114.366 19.7947 116.032 18.1598 116.032 16.1429C116.032 14.1261 114.366 12.4911 112.311 12.4911C110.257 12.4911 108.591 14.1261 108.591 16.1429C108.591 18.1598 110.257 19.7947 112.311 19.7947Z" fill="#EAE664"/>
<path d="M74.1775 7.30366C76.2323 7.30366 77.898 5.66868 77.898 3.65183C77.898 1.63498 76.2323 0 74.1775 0C72.1228 0 70.457 1.63498 70.457 3.65183C70.457 5.66868 72.1228 7.30366 74.1775 7.30366Z" fill="#EAE664"/>
</g>
<defs>
<clipPath id="clip0_228_182">
<rect width="143" height="72" fill="white"/>
</clipPath>
</defs>
</svg>
